<svg width="114" height="20" xmlns="http://www.w3.org/2000/svg"><path d="M12 11a1.39 1.39 0 0 0-1.87.16 3.66 3.66 0 0 1-2.95 1 3.17 3.17 0 0 1-2.6-3.31A3.42 3.42 0 0 1 7.34 5.3a3 3 0 0 1 1.87.4 6 6 0 0 1 1.29 1 1.55 1.55 0 0 0 1.91 0 4.92 4.92 0 0 0 1.8-2.7 1.33 1.33 0 0 0-.82-1.77 8.81 8.81 0 0 1-1.16-.57A8.31 8.31 0 0 0 7.11.13C3.12.25 0 4.18 0 8.94s3.12 8.49 7.11 8.4a8.09 8.09 0 0 0 3.43-.85 11.58 11.58 0 0 1 1.86-.71A1.52 1.52 0 0 0 13.53 14 5.22 5.22 0 0 0 12 11z" fill="#82be28"/><path d="M25.14 15.44a4.76 4.76 0 0 0-.62-1.34 10.54 10.54 0 0 1-.66-1.35 30.74 30.74 0 0 1-1.49-5.11c-.43-1.88-.94-4.46-1.12-5.32A2.5 2.5 0 0 0 20 .44a3.63 3.63 0 0 0-1.39-.2h-2.37a3.63 3.63 0 0 0-1.39.2 2.5 2.5 0 0 0-1.26 1.89A1.32 1.32 0 0 1 14.21 4a4.92 4.92 0 0 1-1.79 2.69 1.55 1.55 0 0 1-1.91 0 6 6 0 0 0-1.29-1 3 3 0 0 0-1.87-.4 3.42 3.42 0 0 0-2.77 3.56 3.17 3.17 0 0 0 2.65 3.32 3.66 3.66 0 0 0 2.95-1A1.39 1.39 0 0 1 12 11a5.22 5.22 0 0 1 1.49 3 1.52 1.52 0 0 1-1.13 1.79 11.58 11.58 0 0 0-1.86.71h-.09a1.73 1.73 0 0 0 1.42.64 21.35 21.35 0 0 0 2.27 0 1.83 1.83 0 0 0 1.77-1 4.28 4.28 0 0 1 .5-1.07 1.15 1.15 0 0 1 1-.45 1.15 1.15 0 0 1 1 .45 4.29 4.29 0 0 1 .5 1.07 1.83 1.83 0 0 0 1.77 1h2.9a1.59 1.59 0 0 0 1.12-.38 1.47 1.47 0 0 0 .48-1.32zm-7.72-4.25c-1.41 0-1.71-1.43-1.32-2.77.45-1.52.93-1.72 1.32-1.72s.87.19 1.32 1.72c.4 1.33.1 2.76-1.31 2.76z" fill="#2d8c3c"/><path d="M63.23 8.08c0-2.34-1.83-2.68-2.92-2.68-3 0-4.42 2.65-4.42 5.12 0 3.06 1.41 4.61 4.2 4.61a6.11 6.11 0 0 0 2.86-.71v-2a4.84 4.84 0 0 1-2.47.85 2 2 0 0 1-2.08-2.07c2.6-.1 4.83-.88 4.83-3.12zm-4.84 1.77c.08-2.38 1.09-2.77 1.75-2.77a1 1 0 0 1 1 1c-.04 1.02-1.09 1.65-2.75 1.77zm-23.31 1.84l1.86 1.38a4.83 4.83 0 0 1-4 2c-2.88 0-5.22-2.18-5.22-6.29 0-3.93 2.34-6.28 5.22-6.28a4.84 4.84 0 0 1 4 2l-1.89 1.45A2.56 2.56 0 0 0 33 4.73c-1.47 0-2.66 1.53-2.66 4.08s1.16 4.08 2.66 4.08a2.55 2.55 0 0 0 2.08-1.2zm10.14-5.94h-2.54v5.59c0 1-.46 1.44-1.25 1.44s-1.23-.47-1.23-1.44V5.75h-2.53v4.07a11.43 11.43 0 0 0 .17 2.55 2.53 2.53 0 0 0 2.45 1.83 4 4 0 0 0-2.15 3.31c0 1.51 1.18 2.36 3.06 2.36 2.52 0 3.72-1.62 3.92-4 .11-1.35.1-2.37.1-2.89zm-2.47 10.06c0 .85-.08 2.35-1.33 2.35A1.06 1.06 0 0 1 40.35 17a3.77 3.77 0 0 1 2.4-3.19c.01.19.03 1.19 0 2zm64.82-7.34v6.35H105V9.26c0-.65-.18-1.61-1.24-1.61-.86 0-1.37.81-1.37 1.82v5.37h-2.51V5.75h2.3v1.36a2.81 2.81 0 0 1 2.63-1.71c1.76 0 2.77 1.03 2.77 3.08zM51.4 5.4a3.34 3.34 0 0 0-2 .65V2.79h-2.54v11.65a9.57 9.57 0 0 0 3.56.69c2.87 0 4.38-1.83 4.38-5.29 0-2.91-1.18-4.44-3.4-4.44zm-.84 8.07a2.47 2.47 0 0 1-1.17-.28V8.26a1.17 1.17 0 0 1 1.18-1.18c1.69 0 1.69 2.3 1.69 3.16.02 1.6-.19 3.23-1.7 3.23zm61.16-7.73H114v1.95h-2.27V11a4.68 4.68 0 0 0 .14 1.51 1.17 1.17 0 0 0 1.21.73A2.55 2.55 0 0 0 114 13v1.73a5 5 0 0 1-1.87.37c-1.81 0-2.52-.65-2.79-1.67a18.61 18.61 0 0 1-.17-3.48V2.79h2.55zm-21.9.32a9.83 9.83 0 0 0-3.5-.66c-2.92 0-4.47 2-4.47 4.68a3.92 3.92 0 0 0 3.09 4.09 4 4 0 0 0-2.19 3.34c0 1.51 1.18 2.36 3.06 2.36 2.52 0 3.72-1.62 3.92-4 .11-1.35.1-2.37.1-2.89zm-5.46 4.2c0-2.06.85-3.74 2.92-3v4.07c0 1-.46 1.44-1.24 1.44s-1.67-.44-1.67-2.51zm3 5.55c0 .85-.08 2.35-1.33 2.35A1.06 1.06 0 0 1 85 17a3.73 3.73 0 0 1 2.4-3.19c-.03.19-.01 1.19-.04 2zm11.07-7.73c0-2.34-1.84-2.68-2.93-2.68-3 0-4.41 2.65-4.41 5.12 0 3.06 1.41 4.61 4.2 4.61a6.12 6.12 0 0 0 2.86-.71v-2a4.85 4.85 0 0 1-2.48.85 2 2 0 0 1-2.07-2.07c2.57-.1 4.83-.88 4.83-3.12zm-4.85 1.77c.08-2.38 1.09-2.77 1.75-2.77a1 1 0 0 1 1 1c-.03 1.02-1.08 1.65-2.75 1.77zM74.83 2.79l-3.75 12h2.44l.79-2.52h4.2l.79 2.52h2.44L78 2.79zm.09 7.54l1.49-4.77 1.48 4.77zM69.1 5.58a2.19 2.19 0 0 1 1.29.32v2.3a2.5 2.5 0 0 0-1.48-.36 1.85 1.85 0 0 0-1.69 1.88v5.11h-2.53V5.75H67V7.2a2.53 2.53 0 0 1 2.1-1.62z"/></svg>